<svg width="500" height="500" viewBox="0 0 500 500" fill="none" xmlns="http://www.w3.org/2000/svg">
<rect width="500" height="500" fill="#060606"/>
<path d="M102.083 221.539L246.771 397.839C248.771 400.277 252.502 400.276 254.502 397.838L398.64 222.089C418.324 191.618 413.554 151.495 387.271 126.464C355.731 96.4265 313.515 88.883 279.088 116.24C274.533 119.86 270.846 124.421 267.563 129.225L253.067 150.444C251.888 152.168 249.353 152.191 248.143 150.488L232.712 128.755C229.264 123.899 225.393 119.311 220.655 115.702C185.967 89.2853 144.93 95.9357 113.452 125.914C87.1684 150.945 82.3981 191.068 102.083 221.539Z" fill="#101010"/>
<g filter="url(#filter0_i)">
<path d="M115.959 220.944L250.698 385.5L384.937 221.444C402.791 193.744 398.464 157.268 374.626 134.513C344.165 105.437 294.956 110.349 270.844 144.873L252.674 169.819C251.461 171.484 248.969 171.459 247.79 169.77L230.052 144.373C205.94 109.849 156.731 104.937 126.271 134.013C102.432 156.768 98.1051 193.244 115.959 220.944Z" fill="white"/>
</g>
<g filter="url(#filter1_d)">
<path d="M184.616 252.3H197.318V261H173.248V220.11H184.616V252.3ZM207.48 225.446C205.47 225.446 203.846 224.905 202.608 223.822C201.41 222.701 200.81 221.309 200.81 219.646C200.81 217.945 201.41 216.533 202.608 215.412C203.846 214.291 205.47 213.73 207.48 213.73C209.452 213.73 211.038 214.291 212.236 215.412C213.474 216.533 214.092 217.945 214.092 219.646C214.092 221.309 213.474 222.701 212.236 223.822C211.038 224.905 209.452 225.446 207.48 225.446ZM213.106 228.462V261H201.738V228.462H213.106ZM239.938 261L230.948 247.66V261H219.58V218.08H230.948V241.222L239.938 228.462H253.568L240.75 244.818L253.8 261H239.938ZM288.221 244.354C288.221 245.243 288.163 246.133 288.047 247.022H266.529C266.645 248.801 267.128 250.135 267.979 251.024C268.868 251.875 269.989 252.3 271.343 252.3C273.237 252.3 274.591 251.449 275.403 249.748H287.525C287.022 251.991 286.036 254.001 284.567 255.78C283.136 257.52 281.319 258.893 279.115 259.898C276.911 260.903 274.475 261.406 271.807 261.406C268.597 261.406 265.736 260.729 263.223 259.376C260.748 258.023 258.795 256.089 257.365 253.576C255.973 251.063 255.277 248.105 255.277 244.702C255.277 241.299 255.973 238.361 257.365 235.886C258.757 233.373 260.69 231.439 263.165 230.086C265.678 228.733 268.559 228.056 271.807 228.056C275.016 228.056 277.858 228.713 280.333 230.028C282.807 231.343 284.741 233.237 286.133 235.712C287.525 238.148 288.221 241.029 288.221 244.354ZM276.621 241.512C276.621 240.12 276.157 239.037 275.229 238.264C274.301 237.452 273.141 237.046 271.749 237.046C270.357 237.046 269.216 237.433 268.327 238.206C267.437 238.941 266.857 240.043 266.587 241.512H276.621ZM291.017 244.702C291.017 241.338 291.616 238.399 292.815 235.886C294.052 233.373 295.734 231.439 297.861 230.086C299.988 228.733 302.346 228.056 304.937 228.056C307.025 228.056 308.881 228.501 310.505 229.39C312.168 230.241 313.463 231.42 314.391 232.928V218.08H325.817V261H314.391V256.476C313.502 257.984 312.245 259.183 310.621 260.072C308.997 260.961 307.083 261.406 304.879 261.406C302.288 261.406 299.93 260.729 297.803 259.376C295.715 258.023 294.052 256.089 292.815 253.576C291.616 251.024 291.017 248.066 291.017 244.702ZM314.449 244.702C314.449 242.614 313.869 240.971 312.709 239.772C311.588 238.573 310.196 237.974 308.533 237.974C306.832 237.974 305.42 238.573 304.299 239.772C303.178 240.932 302.617 242.575 302.617 244.702C302.617 246.79 303.178 248.453 304.299 249.69C305.42 250.889 306.832 251.488 308.533 251.488C310.196 251.488 311.588 250.889 312.709 249.69C313.869 248.491 314.449 246.829 314.449 244.702Z" fill="black"/>
</g>
<defs>
<filter id="filter0_i" x="105" y="115" width="294.896" height="274.5" filterUnits="userSpaceOnUse" color-interpolation-filters="sRGB">
<feFlood flood-opacity="0" result="BackgroundImageFix"/>
<feBlend mode="normal" in="SourceGraphic" in2="BackgroundImageFix" result="shape"/>
<feColorMatrix in="SourceAlpha" type="matrix" values="0 0 0 0 0 0 0 0 0 0 0 0 0 0 0 0 0 0 127 0" result="hardAlpha"/>
<feOffset dx="8" dy="8"/>
<feGaussianBlur stdDeviation="2"/>
<feComposite in2="hardAlpha" operator="arithmetic" k2="-1" k3="1"/>
<feColorMatrix type="matrix" values="0 0 0 0 0 0 0 0 0 0 0 0 0 0 0 0 0 0 0.25 0"/>
<feBlend mode="normal" in2="shape" result="effect1_innerShadow"/>
</filter>
<filter id="filter1_d" x="173.248" y="213.73" width="160.569" height="55.676" filterUnits="userSpaceOnUse" color-interpolation-filters="sRGB">
<feFlood flood-opacity="0" result="BackgroundImageFix"/>
<feColorMatrix in="SourceAlpha" type="matrix" values="0 0 0 0 0 0 0 0 0 0 0 0 0 0 0 0 0 0 127 0"/>
<feOffset dx="4" dy="4"/>
<feGaussianBlur stdDeviation="2"/>
<feColorMatrix type="matrix" values="0 0 0 0 0 0 0 0 0 0 0 0 0 0 0 0 0 0 0.25 0"/>
<feBlend mode="normal" in2="BackgroundImageFix" result="effect1_dropShadow"/>
<feBlend mode="normal" in="SourceGraphic" in2="effect1_dropShadow" result="shape"/>
</filter>
</defs>
</svg>
